<svg width="349" height="78" viewBox="0 0 349 78" fill="none" xmlns="http://www.w3.org/2000/svg">
<path d="M25.4996 27H0V39.6634H12.75L25.4996 27Z" fill="#053FFF"/>
<path d="M12.7549 39.6683H0.00488281V52.3366H12.7549V39.6683Z" fill="#00E61E"/>
<path d="M12.75 39.6634V52.3317L25.4995 65V27L12.75 39.6634Z" fill="#00A6FF"/>
<path d="M45.0894 33.5798H38.2495V30.0073H56.2219V33.5798H49.2584V52.3316H45.0894V33.5798Z" fill="#000A5A"/>
<path d="M58.2795 30.0123H62.1964V35.8158V38.9706C62.6118 38.2384 63.225 37.5357 64.0559 36.9312C64.8917 36.2924 66.0143 35.973 67.4584 35.973C70.9253 35.973 72.6567 38.1745 72.6567 41.7765V52.3317H68.7397V42.6364C68.7397 40.3416 67.681 39.2261 65.8511 39.2261C64.7581 39.2261 63.9272 39.5455 63.3782 40.2138C62.3199 41.4914 62.1916 43.1475 62.1916 45.059V52.3317H58.2747V30.0123H58.2795Z" fill="#000A5A"/>
<path d="M84.7585 36.4497H88.5764V38.9706C89.3479 37.5357 91.0493 35.973 93.7447 35.973C97.4342 35.973 99.1357 38.1106 99.1357 41.7765V52.3317H95.2187V42.6364C95.2187 40.3416 94.16 39.2261 92.3301 39.2261C91.2371 39.2261 90.4062 39.5455 89.8572 40.2138C88.7989 41.4915 88.6706 43.1475 88.6706 45.059V52.3317H84.7537V36.4497H84.7585Z" fill="#000A5A"/>
<path d="M109.724 45.4472L107.157 47.8698V52.3317H103.245V30.0123H107.157V37.9828V43.5013L114.314 36.4497H119.195L112.454 42.8624L120.061 52.3317H115.12L109.724 45.4472Z" fill="#000A5A"/>
<path d="M119.709 30.8154H124.363L128.473 44.0194L129.21 46.3781L130.268 49.695C130.718 48.324 131.327 46.442 132.064 44.0194L136.238 30.8154H140.828L133.251 53.1397H127.252L119.709 30.8154Z" fill="#000A5A"/>
<path d="M157.217 35.973C161.842 35.973 164.73 39.4177 164.73 44.1352C164.73 44.5824 164.695 44.9951 164.666 45.3489H153.37C153.499 48.3809 155.101 49.7519 157.316 49.7519C159.369 49.7519 160.496 48.5381 161.233 46.8821L164.764 48.1892C163.642 50.9656 161.233 52.8133 157.287 52.8133C152.569 52.8133 149.487 49.6585 149.487 44.3956C149.482 39.3882 152.786 35.973 157.217 35.973ZM160.778 42.4792C160.65 40.1843 159.27 38.8772 157.217 38.8772C155.259 38.8772 153.785 40.2187 153.494 42.4792H160.778Z" fill="#000A5A"/>
<path d="M165.753 36.4496H169.799L171.436 42.2874C172.4 45.8894 172.979 47.9631 173.137 48.538L174.71 42.828L176.569 36.4496H181.159L183.083 43.113C183.79 45.7272 184.305 47.5159 184.592 48.4692L186.387 41.9336L187.989 36.4496H192L186.767 52.3316H182.113L180.061 45.1228L179.161 41.9336L178.711 40.3415C178.518 41.0737 178.068 42.6707 177.366 45.0933L175.279 52.3316H170.912L165.753 36.4496Z" fill="#000A5A"/>
<path d="M142.494 38.6953L146.376 36.4496V52.3316H142.494V38.6953Z" fill="#000A5A"/>
<path d="M142.494 36.1941L146.401 33.9533V30.0762L142.494 32.317V36.1941Z" fill="#000A5A"/>
<path d="M76.7512 38.6953L80.6387 36.4496V52.3316H76.7512V38.6953Z" fill="#000A5A"/>
<path d="M76.7512 36.1941L80.6585 33.9533V30.0762L76.7512 32.317V36.1941Z" fill="#000A5A"/>
<path d="M204.808 36.3236C206.24 36.0549 206.922 35.1548 206.922 34.1203C206.922 32.6694 205.626 31.7693 203.73 31.7693H199.68V41.1735H203.935C205.94 41.1735 207.358 40.1793 207.358 38.5672C207.358 37.4656 206.513 36.552 204.808 36.3236ZM201.371 35.8534V32.9918H203.39C204.522 32.9918 205.163 33.5024 205.163 34.3353C205.163 35.1951 204.358 35.8534 203.158 35.8534H201.371ZM203.54 39.951H201.371V36.9953H203.403C204.781 36.9953 205.572 37.5462 205.572 38.3925C205.572 39.3867 204.862 39.951 203.54 39.951Z" fill="#878B96"/>
<path d="M214.978 37.7342C214.978 35.7325 213.682 34.4159 211.705 34.4159C209.727 34.4159 208.323 35.7997 208.323 37.882C208.323 39.9644 209.714 41.3079 211.787 41.3079C213.26 41.3079 214.283 40.6093 214.855 39.5345L213.355 39.0508C213.178 39.7629 212.632 40.1793 211.773 40.1793C210.723 40.1793 210.027 39.5211 209.905 38.2045H214.964C214.978 38.0432 214.978 37.8552 214.978 37.7342ZM211.732 35.4907C212.741 35.4907 213.342 36.1221 213.41 37.2372H209.932C210.082 36.1221 210.709 35.4907 211.732 35.4907Z" fill="#878B96"/>
<path d="M219.771 40.1122C218.953 40.1122 218.367 39.642 218.367 38.7284V35.6385H220.549V34.5502H218.367V32.3067H216.825V34.5502H215.612V35.6385H216.825V38.8628C216.825 40.448 218.053 41.3079 219.649 41.3079C219.962 41.3079 220.358 41.281 220.562 41.2138V39.9241C220.371 40.0584 220.017 40.1122 219.771 40.1122Z" fill="#878B96"/>
<path d="M224.806 34.4159C223.401 34.4159 222.31 35.0876 221.737 36.1355L223.115 36.6729C223.401 35.9609 224.015 35.5444 224.738 35.5444C225.515 35.5444 226.02 36.0146 226.02 36.5654V36.5789C226.02 37.5462 221.601 36.7804 221.601 39.4942C221.601 40.5958 222.474 41.3079 223.824 41.3079C224.942 41.3079 225.652 40.8242 226.02 40.0719V41.1735H227.52V36.7267C227.52 35.3295 226.443 34.4159 224.806 34.4159ZM224.165 40.2465C223.538 40.2465 223.128 39.9107 223.128 39.4001C223.128 38.1239 224.901 38.2985 226.02 37.882V38.715C226.02 39.5345 225.079 40.2465 224.165 40.2465Z" fill="#878B96"/>
<g clip-path="url(#clip0)">
<path d="M282.512 35.7188L287.55 31.8797C288.145 31.4275 288.262 30.5755 287.794 29.976L277.74 17.0705C277.283 16.4815 276.423 16.3658 275.817 16.8286L270.779 20.6677C270.184 21.1199 270.067 21.9719 270.535 22.5714L280.589 35.4768C281.056 36.0659 281.917 36.171 282.512 35.7188Z" fill="#F26B28"/>
<path d="M286.955 27.231L280.365 32.2585" stroke="#543821" stroke-width="0.341" stroke-miterlimit="10"/>
<path d="M280.217 18.5747L273.617 23.6023" stroke="#543821" stroke-width="0.341" stroke-miterlimit="10"/>
<path d="M280.387 51.9585L285.424 48.1195C286.02 47.6672 286.136 46.8153 285.669 46.2157L275.615 33.3103C275.158 32.7213 274.297 32.6056 273.691 33.0684L268.654 36.9074C268.059 37.3597 267.942 38.2116 268.409 38.8111L278.463 51.7166C278.931 52.3056 279.792 52.4108 280.387 51.9585Z" fill="#F26B28"/>
<path d="M284.829 43.4707L278.24 48.4982" stroke="#543821" stroke-width="0.341" stroke-miterlimit="10"/>
<path d="M278.081 34.8145L271.491 39.842" stroke="#543821" stroke-width="0.341" stroke-miterlimit="10"/>
<path d="M278.261 68.1981L283.299 64.3591C283.894 63.9068 284.011 63.0549 283.543 62.4554L273.489 49.5499C273.032 48.9609 272.172 48.8452 271.566 49.308L266.528 53.147C265.933 53.5993 265.816 54.4512 266.284 55.0508L276.338 67.9562C276.805 68.5452 277.666 68.6504 278.261 68.1981Z" fill="#F26B28"/>
<path d="M282.704 59.7103L276.115 64.7379" stroke="#543821" stroke-width="0.341" stroke-miterlimit="10"/>
<path d="M275.955 51.0541L269.366 56.0816" stroke="#543821" stroke-width="0.341" stroke-miterlimit="10"/>
<path d="M255.273 24.3383L251.394 19.3529C250.937 18.7639 251.044 17.9119 251.639 17.4491L264.679 7.4992C265.274 7.04693 266.135 7.15211 266.603 7.74111L270.482 12.7266C270.939 13.3156 270.832 14.1675 270.237 14.6303L257.197 24.5803C256.602 25.043 255.741 24.9379 255.273 24.3383Z" fill="#F26B28"/>
<path d="M253.169 15.0195L258.249 21.5406" stroke="#543821" stroke-width="0.341" stroke-miterlimit="10"/>
<path d="M261.916 8.3407L266.996 14.8723" stroke="#543821" stroke-width="0.341" stroke-miterlimit="10"/>
<path d="M253.148 40.578L249.269 35.5925C248.812 35.0035 248.918 34.1515 249.513 33.6887L262.554 23.7388C263.149 23.2866 264.01 23.3917 264.477 23.9807L268.356 28.9662C268.813 29.5552 268.707 30.4072 268.112 30.87L255.072 40.8199C254.476 41.2827 253.616 41.1775 253.148 40.578Z" fill="#F26B28"/>
<path d="M251.044 31.2592L256.124 37.7802" stroke="#543821" stroke-width="0.341" stroke-miterlimit="10"/>
<path d="M259.79 24.5803L264.87 31.1119" stroke="#543821" stroke-width="0.341" stroke-miterlimit="10"/>
<path d="M251.022 56.8282L247.143 51.8427C246.686 51.2537 246.793 50.4018 247.388 49.939L260.428 39.9891C261.023 39.5368 261.884 39.642 262.352 40.231L266.231 45.2165C266.688 45.8055 266.581 46.6574 265.986 47.1202L252.946 57.0701C252.34 57.5224 251.49 57.4172 251.022 56.8282Z" fill="#F26B28"/>
<path d="M248.918 47.4988L253.998 54.0304" stroke="#543821" stroke-width="0.341" stroke-miterlimit="10"/>
<path d="M257.665 40.8306L262.745 47.3517" stroke="#543821" stroke-width="0.341" stroke-miterlimit="10"/>
<path d="M271.608 0C271.608 8.33017 266.294 8.33017 266.294 16.6603C266.294 24.9905 271.608 24.9905 271.608 33.3207C271.608 41.6509 266.294 41.6509 266.294 49.981C266.294 52.1267 266.645 53.7149 267.166 55.0401" stroke="#543821" stroke-width="0.4696" stroke-miterlimit="10"/>
<path d="M236.282 25.1588L241.723 27.3991" stroke="#543821" stroke-width="0.4696" stroke-miterlimit="10"/>
<path d="M243.424 17.6489L245.666 23.0341" stroke="#543821" stroke-width="0.4696" stroke-miterlimit="10"/>
<path d="M235.942 35.4662L241.383 33.2365" stroke="#543821" stroke-width="0.4696" stroke-miterlimit="10"/>
<path d="M296.424 65.9262L290.558 65.3688" stroke="#543821" stroke-width="0.4696" stroke-miterlimit="10"/>
<path d="M293.703 55.9763L289.155 59.6786" stroke="#543821" stroke-width="0.4696" stroke-miterlimit="10"/>
<path d="M291.822 75.182L288.081 70.6803" stroke="#543821" stroke-width="0.4696" stroke-miterlimit="10"/>
<g clip-path="url(#clip1)">
<path d="M282.512 35.7188L287.55 31.8797C288.145 31.4275 288.262 30.5755 287.794 29.976L277.74 17.0705C277.283 16.4815 276.423 16.3658 275.817 16.8286L270.779 20.6677C270.184 21.1199 270.067 21.9719 270.535 22.5714L280.589 35.4768C281.056 36.0659 281.917 36.171 282.512 35.7188Z" fill="#F26B28"/>
<path d="M286.955 27.231L280.365 32.2585" stroke="#543821" stroke-width="0.341" stroke-miterlimit="10"/>
<path d="M280.217 18.5747L273.617 23.6023" stroke="#543821" stroke-width="0.341" stroke-miterlimit="10"/>
<path d="M280.387 51.9585L285.424 48.1195C286.02 47.6672 286.136 46.8153 285.669 46.2157L275.615 33.3103C275.158 32.7213 274.297 32.6056 273.691 33.0684L268.654 36.9074C268.059 37.3597 267.942 38.2116 268.409 38.8111L278.463 51.7166C278.931 52.3056 279.792 52.4108 280.387 51.9585Z" fill="#F26B28"/>
<path d="M284.829 43.4707L278.24 48.4982" stroke="#543821" stroke-width="0.341" stroke-miterlimit="10"/>
<path d="M278.081 34.8145L271.491 39.842" stroke="#543821" stroke-width="0.341" stroke-miterlimit="10"/>
<path d="M278.261 68.1981L283.299 64.3591C283.894 63.9068 284.011 63.0549 283.543 62.4554L273.489 49.5499C273.032 48.9609 272.172 48.8452 271.566 49.308L266.528 53.147C265.933 53.5993 265.816 54.4512 266.284 55.0508L276.338 67.9562C276.805 68.5452 277.666 68.6504 278.261 68.1981Z" fill="#F26B28"/>
<path d="M282.704 59.7103L276.115 64.7379" stroke="#543821" stroke-width="0.341" stroke-miterlimit="10"/>
<path d="M275.955 51.0541L269.366 56.0816" stroke="#543821" stroke-width="0.341" stroke-miterlimit="10"/>
<path d="M255.273 24.3383L251.394 19.3529C250.937 18.7639 251.044 17.9119 251.639 17.4491L264.679 7.4992C265.274 7.04693 266.135 7.15211 266.603 7.74111L270.482 12.7266C270.939 13.3156 270.832 14.1675 270.237 14.6303L257.197 24.5803C256.602 25.043 255.741 24.9379 255.273 24.3383Z" fill="#F26B28"/>
<path d="M253.169 15.0195L258.249 21.5406" stroke="#543821" stroke-width="0.341" stroke-miterlimit="10"/>
<path d="M261.916 8.3407L266.996 14.8723" stroke="#543821" stroke-width="0.341" stroke-miterlimit="10"/>
<path d="M253.148 40.578L249.269 35.5925C248.812 35.0035 248.918 34.1515 249.513 33.6887L262.554 23.7388C263.149 23.2866 264.01 23.3917 264.477 23.9807L268.356 28.9662C268.813 29.5552 268.707 30.4072 268.112 30.87L255.072 40.8199C254.476 41.2827 253.616 41.1775 253.148 40.578Z" fill="#F26B28"/>
<path d="M251.044 31.2592L256.124 37.7802" stroke="#543821" stroke-width="0.341" stroke-miterlimit="10"/>
<path d="M259.79 24.5803L264.87 31.1119" stroke="#543821" stroke-width="0.341" stroke-miterlimit="10"/>
<path d="M251.022 56.8282L247.143 51.8427C246.686 51.2537 246.793 50.4018 247.388 49.939L260.428 39.9891C261.023 39.5368 261.884 39.642 262.352 40.231L266.231 45.2165C266.688 45.8055 266.581 46.6574 265.986 47.1202L252.946 57.0701C252.34 57.5224 251.49 57.4172 251.022 56.8282Z" fill="#F26B28"/>
<path d="M248.918 47.4988L253.998 54.0304" stroke="#543821" stroke-width="0.341" stroke-miterlimit="10"/>
<path d="M257.665 40.8306L262.745 47.3517" stroke="#543821" stroke-width="0.341" stroke-miterlimit="10"/>
<path d="M271.608 0C271.608 8.33017 266.294 8.33017 266.294 16.6603C266.294 24.9905 271.608 24.9905 271.608 33.3207C271.608 41.6509 266.294 41.6509 266.294 49.981C266.294 52.1267 266.645 53.7149 267.166 55.0401" stroke="#543821" stroke-width="0.4696" stroke-miterlimit="10"/>
<path d="M236.282 25.1588L241.723 27.3991" stroke="#543821" stroke-width="0.4696" stroke-miterlimit="10"/>
<path d="M243.424 17.6489L245.666 23.0341" stroke="#543821" stroke-width="0.4696" stroke-miterlimit="10"/>
<path d="M235.942 35.4662L241.383 33.2365" stroke="#543821" stroke-width="0.4696" stroke-miterlimit="10"/>
<path d="M296.424 65.9262L290.558 65.3688" stroke="#543821" stroke-width="0.4696" stroke-miterlimit="10"/>
<path d="M293.703 55.9763L289.155 59.6786" stroke="#543821" stroke-width="0.4696" stroke-miterlimit="10"/>
<path d="M291.822 75.182L288.081 70.6803" stroke="#543821" stroke-width="0.4696" stroke-miterlimit="10"/>
</g>
</g>
<g clip-path="url(#clip2)">
<path d="M348.731 41.7385L344.696 40.9927" stroke="#E03E95" stroke-miterlimit="10"/>
<path d="M345.018 48.11L342.678 44.6685" stroke="#E03E95" stroke-miterlimit="10"/>
<path d="M347.41 34.4291L344.051 36.8264" stroke="#E03E95" stroke-miterlimit="10"/>
<path d="M337.552 42.6872L315.611 49.3359C314.435 49.6875 313.198 49.0056 312.855 47.8016L306.366 25.309C306.012 24.1049 306.688 22.837 307.863 22.4747L329.815 15.826C330.99 15.4744 332.228 16.1564 332.571 17.3604L339.06 39.853C339.403 41.0676 338.727 42.3356 337.552 42.6872Z" fill="#63BB46"/>
<path d="M333.569 20.7482L307.364 28.6861" stroke="#FBD00F" stroke-width="1.1588" stroke-miterlimit="10"/>
<path d="M335.836 28.6117L309.631 36.539" stroke="#FBD00F" stroke-width="1.1588" stroke-miterlimit="10"/>
<path d="M338.103 36.4644L311.898 44.4023" stroke="#FBD00F" stroke-width="1.1588" stroke-miterlimit="10"/>
<path d="M323.389 17.7755L331.136 44.6367" stroke="#FBD00F" stroke-width="1.1588" stroke-miterlimit="10"/>
<path d="M324.616 21.0039L331.396 44.5514" stroke="#543821" stroke-width="0.3392" stroke-miterlimit="10"/>
<path d="M314.248 20.5458L321.995 47.3963" stroke="#FBD00F" stroke-width="1.1588" stroke-miterlimit="10"/>
<path d="M314.976 23.9235L321.767 47.4709" stroke="#543821" stroke-width="0.3392" stroke-miterlimit="10"/>
<path d="M311.253 27.3544L334.224 20.4073" stroke="#543821" stroke-width="0.3392" stroke-miterlimit="10"/>
<path d="M314.259 35.548L337.24 28.5903" stroke="#543821" stroke-width="0.3392" stroke-miterlimit="10"/>
<path d="M316.016 43.3049L338.998 36.3472" stroke="#543821" stroke-width="0.3392" stroke-miterlimit="10"/>
<path d="M334.214 44.9032L317.982 49.8151C316.245 50.3372 314.425 49.325 313.905 47.5456L309.059 30.7321" stroke="#543821" stroke-width="0.3392" stroke-miterlimit="10"/>
</g>
<g clip-path="url(#clip3)">
<path d="M186.695 18.5987C186.148 18.2258 186.056 17.4212 186.491 16.9109C186.908 16.4202 187.51 15.8903 188.344 15.5959C189.817 15.066 191.503 15.4487 192.846 16.5478C193.392 16.9894 193.392 17.8628 192.855 18.3142C192.17 18.8833 191.104 19.5114 189.705 19.5408C188.399 19.5604 187.371 19.06 186.695 18.5987Z" fill="#FF80BB"/>
<path d="M191.975 16.0385C191.651 15.803 190.808 15.2338 189.65 15.2829C187.575 15.3614 186.454 17.324 186.371 17.481" stroke="#543821" stroke-width="0.2962" stroke-miterlimit="10"/>
<path d="M184.138 19.2867C184.295 18.6194 184.981 18.2661 185.583 18.5409C186.148 18.8058 186.815 19.2376 187.343 19.9834C188.279 21.2886 188.483 23.104 187.927 24.8115C187.705 25.4984 186.926 25.783 186.352 25.3807C185.629 24.8802 184.722 24.0068 184.249 22.6035C183.814 21.2984 183.934 20.111 184.138 19.2867Z" fill="#FF80BB"/>
<path d="M187.658 24.8704C187.788 24.4582 188.103 23.2218 187.631 21.789C187.019 19.954 185.555 19.1689 185.259 19.0217" stroke="#543821" stroke-width="0.2962" stroke-miterlimit="10"/>
<path d="M182.814 17.756C183.443 17.9326 183.777 18.6588 183.518 19.2868C183.267 19.8854 182.851 20.592 182.156 21.1612C180.914 22.1523 179.21 22.3682 177.598 21.7696C176.95 21.5341 176.681 20.7097 177.061 20.1013C177.542 19.3359 178.358 18.384 179.682 17.8836C180.914 17.4027 182.045 17.5303 182.814 17.756Z" fill="#FF80BB"/>
<path d="M177.941 19.4242C178.191 19.1102 178.923 18.276 180.173 17.9326C181.618 17.5401 182.776 18.0896 183.101 18.2466" stroke="#543821" stroke-width="0.2962" stroke-miterlimit="10"/>
<path d="M183.731 15.3321C183.916 15.9896 183.499 16.6667 182.851 16.755C182.239 16.8335 181.452 16.8237 180.637 16.4802C179.201 15.862 178.145 14.4195 177.793 12.6531C177.654 11.9465 178.182 11.2792 178.867 11.3087C179.738 11.3479 180.933 11.6031 182.017 12.5451C183.036 13.4283 183.508 14.5078 183.731 15.3321Z" fill="#FF80BB"/>
<path d="M180.034 12.0839C180.377 12.1035 181.526 12.2114 182.536 13.1829C183.369 13.9876 183.647 14.9493 183.731 15.332" stroke="#543821" stroke-width="0.2962" stroke-miterlimit="10"/>
<path d="M185.963 16.0189C185.398 16.3526 184.685 16.0778 184.453 15.4302C184.24 14.8119 184.082 13.9974 184.212 13.075C184.453 11.446 185.546 10.0427 187.093 9.28711C187.714 8.9829 188.446 9.37543 188.575 10.0918C188.733 10.9946 188.761 12.2899 188.14 13.6245C187.556 14.8708 186.667 15.6068 185.963 16.0189Z" fill="#FF80BB"/>
<path d="M185.991 10.5333C185.62 11.0044 185.055 11.8581 184.721 13.0553C184.444 14.017 184.425 14.8609 184.453 15.4301" stroke="#543821" stroke-width="0.2962" stroke-miterlimit="10"/>
</g>
<g clip-path="url(#clip4)">
<path d="M225.91 63.1999C225.841 62.9985 224.943 60.3062 226.731 58.1011C227.902 56.6574 229.525 56.2844 230.505 56.2022C230.895 56.1707 231.207 56.5581 231.07 56.9174C230.797 57.6673 230.524 58.4171 230.25 59.167C231.119 59.0088 231.987 58.8507 232.853 58.6805C233.253 58.6038 233.608 58.9904 233.481 59.3669C233.238 60.137 232.737 61.2045 231.693 62.0656C229.324 64.039 226.239 63.2908 225.91 63.1999Z" fill="#FF80BB"/>
<path d="M225.819 63.1271C226.275 63.2537 228.082 63.6948 229.864 62.7716C230.873 62.2471 231.45 61.4986 231.735 61.0655" stroke="#543821" stroke-width="0.3844" stroke-miterlimit="10"/>
<path d="M225.661 65.1392C225.823 65.0132 227.993 63.3154 230.828 64.2225C232.673 64.8135 233.706 66.1471 234.203 67.0109C234.406 67.3656 234.17 67.7909 233.759 67.7881C232.937 67.7826 232.123 67.7821 231.301 67.7765C231.813 68.5066 232.332 69.2418 232.843 69.9719C233.088 70.3137 232.872 70.7733 232.451 70.7845C231.618 70.8121 230.413 70.6993 229.159 70.0384C226.301 68.529 225.72 65.4672 225.661 65.1392Z" fill="#FF80BB"/>
<path d="M226.148 65.5233C226.255 65.9872 226.738 67.809 228.59 69.2175C229.64 70.0173 230.689 70.3425 231.276 70.4858" stroke="#543821" stroke-width="0.3844" stroke-miterlimit="10"/>
<path d="M223.349 64.3421C223.291 64.5389 222.41 67.1481 219.59 67.8256C217.726 68.281 216.13 67.6126 215.257 67.1092C214.924 66.9127 214.9 66.4541 215.21 66.2544C215.894 65.826 216.59 65.3957 217.273 64.9674C216.446 64.5878 215.612 64.2031 214.785 63.8236C214.421 63.6571 214.36 63.1733 214.672 62.9544C215.336 62.4918 216.404 61.9455 217.822 61.8742C220.994 61.715 223.123 64.0848 223.349 64.3421Z" fill="#FF80BB"/>
<path d="M216.76 67.2302C217.238 67.3097 219.127 67.5501 221.013 66.3789C222.079 65.7079 222.698 64.8651 223.002 64.3728" stroke="#543821" stroke-width="0.3844" stroke-miterlimit="10"/>
<path d="M224.055 63.0543C223.839 63.0201 221.015 62.5736 219.629 59.9597C218.676 58.157 219.01 56.4603 219.31 55.5749C219.416 55.2767 219.804 55.202 220.044 55.4383C220.672 56.0623 221.299 56.6864 221.927 57.3104C222.112 56.4184 222.29 55.5214 222.481 54.6224C222.549 54.299 222.946 54.179 223.204 54.4064C223.843 54.9661 224.717 55.9441 225.163 57.3596C226.11 60.3939 224.264 62.7958 224.055 63.0543Z" fill="#FF80BB"/>
<path d="M218.755 58.3754C218.911 58.8315 219.559 60.6018 221.533 61.8469C222.651 62.5485 223.718 62.7833 224.319 62.8744" stroke="#543821" stroke-width="0.3844" stroke-miterlimit="10"/>
<path d="M224.072 65.5255C224.26 65.6329 226.751 67.1075 227.016 69.9951C227.195 71.9282 226.271 73.3136 225.64 74.0146C225.406 74.277 224.965 74.1917 224.816 73.8532C224.482 73.0696 224.143 72.293 223.817 71.5144C223.304 72.2341 222.791 72.9537 222.277 73.6734C222.064 73.97 221.603 73.9127 221.435 73.5712C221.062 72.8125 220.657 71.6405 220.789 70.2386C221.085 67.1484 223.771 65.68 224.072 65.5255Z" fill="#FF80BB"/>
<path d="M223.973 65.7664C223.501 66.0609 221.712 67.2476 221.433 69.1355C221.275 70.2105 221.671 71.0467 221.939 71.4973" stroke="#543821" stroke-width="0.3844" stroke-miterlimit="10"/>
</g>
<defs>
<clipPath id="clip0">
<rect width="60.5993" height="75.3397" fill="white" transform="translate(235.846)"/>
</clipPath>
<clipPath id="clip1">
<rect width="60.5993" height="75.3397" fill="white" transform="translate(235.846)"/>
</clipPath>
<clipPath id="clip2">
<rect width="42.5833" height="34.3942" fill="white" transform="translate(306.272 15.7404)"/>
</clipPath>
<clipPath id="clip3">
<rect width="16.3782" height="16.3782" fill="white" transform="translate(176.885 9.18909)"/>
</clipPath>
<clipPath id="clip4">
<rect width="19.6538" height="19.6538" fill="white" transform="translate(211.554 66.9161) rotate(-55.6698)"/>
</clipPath>
</defs>
</svg>
